HIERARCHY
ROOT joint_Root
{
	OFFSET 0.0 0.0 0.0
	CHANNELS 6 Xposition Yposition Zposition Zrotation Xrotation Yrotation 
	JOINT Hips
	{
		OFFSET -0.726466 93.3139 -2.00062
		CHANNELS 6 Xposition Yposition Zposition Zrotation Xrotation Yrotation 
		JOINT Spine
		{
			OFFSET 15.7357 0.0 0.0
			CHANNELS 6 Xposition Yposition Zposition Zrotation Xrotation Yrotation 
			JOINT Chest
			{
				OFFSET 8.98455 -0.406207 0.0
				CHANNELS 6 Xposition Yposition Zposition Zrotation Xrotation Yrotation 
				JOINT Neck
				{
					OFFSET 16.3773 0.0 0.0
					CHANNELS 6 Xposition Yposition Zposition Zrotation Xrotation Yrotation 
					JOINT Head
					{
						OFFSET 6.45672 0.0 0.0
						CHANNELS 6 Xposition Yposition Zposition Zrotation Xrotation Yrotation 
						End Site
						{
							OFFSET 0.0 0.0 0.0
						}
					}
				}
				JOINT Shoulder_L
				{
					OFFSET 12.9942 -0.242716 4.98039
					CHANNELS 6 Xposition Yposition Zposition Zrotation Xrotation Yrotation 
					JOINT UpperArm_L
					{
						OFFSET 5.34809 0.0 0.0
						CHANNELS 6 Xposition Yposition Zposition Zrotation Xrotation Yrotation 
						JOINT LowerArm_L
						{
							OFFSET 24.3286 1.87007e-05 0.0
							CHANNELS 6 Xposition Yposition Zposition Zrotation Xrotation Yrotation 
							JOINT Hand_L
							{
								OFFSET 22.2916 0.0 0.0
								CHANNELS 6 Xposition Yposition Zposition Zrotation Xrotation Yrotation 
								End Site
								{
									OFFSET 0.0 0.0 0.0
								}
							}
						}
					}
				}
				JOINT Shoulder_R
				{
					OFFSET 12.9945 -0.242716 -4.98039
					CHANNELS 6 Xposition Yposition Zposition Zrotation Xrotation Yrotation 
					JOINT UpperArm_R
					{
						OFFSET -5.34813 0.0 0.0
						CHANNELS 6 Xposition Yposition Zposition Zrotation Xrotation Yrotation 
						JOINT LowerArm_R
						{
							OFFSET -24.3289 0.000322201 0.0
							CHANNELS 6 Xposition Yposition Zposition Zrotation Xrotation Yrotation 
							JOINT Hand_R
							{
								OFFSET -22.2915 -0.000108084 0.0
								CHANNELS 6 Xposition Yposition Zposition Zrotation Xrotation Yrotation 
								End Site
								{
									OFFSET 0.0 0.0 0.0
								}
							}
						}
					}
				}
			}
		}
		JOINT UpperLeg_L
		{
			OFFSET -2.19248 -6.46944 0.0
			CHANNELS 6 Xposition Yposition Zposition Zrotation Xrotation Yrotation 
			JOINT LowerLeg_L
			{
				OFFSET 39.0811 0.0 -1.23785e-05
				CHANNELS 6 Xposition Yposition Zposition Zrotation Xrotation Yrotation 
				JOINT Foot_L
				{
					OFFSET 40.9854 0.0 -1.26872e-05
					CHANNELS 6 Xposition Yposition Zposition Zrotation Xrotation Yrotation 
					JOINT Toes_L
					{
						OFFSET 11.7543 0.0 0.0
						CHANNELS 6 Xposition Yposition Zposition Zrotation Xrotation Yrotation 
						End Site
						{
							OFFSET 0.0 0.0 0.0
						}
					}
				}
			}
		}
		JOINT UpperLeg_R
		{
			OFFSET -2.19251 6.46944 0.0
			CHANNELS 6 Xposition Yposition Zposition Zrotation Xrotation Yrotation 
			JOINT LowerLeg_R
			{
				OFFSET -39.0811 -0.00228153 -0.0401928
				CHANNELS 6 Xposition Yposition Zposition Zrotation Xrotation Yrotation 
				JOINT Foot_R
				{
					OFFSET -40.9854 0.0 0.0
					CHANNELS 6 Xposition Yposition Zposition Zrotation Xrotation Yrotation 
					JOINT Toes_R
					{
						OFFSET -11.7543 0.0 0.0
						CHANNELS 6 Xposition Yposition Zposition Zrotation Xrotation Yrotation 
						End Site
						{
							OFFSET 0.0 0.0 0.0
						}
					}
				}
			}
		}
	}
}
MOTION
Frames:	4
Frame Time:	0.0333333
0.000000 0.000000 0.000000 0.000000 0.000000 -0.000000 -1.506610 92.008000 -1.367590 87.561400 -0.520270 3.313260 15.735700 0.000005 -0.000001 84.780400 85.601500 -84.001200 8.984550 -0.406207 -0.000000 1.000930 -0.845967 1.564590 16.377300 -0.000001 -0.000001 0.284860 -3.716290 1.466220 6.456720 -0.000001 -0.000000 0.926863 -2.123210 -4.682720 12.994200 -0.242716 4.980390 -90.095800 0.312797 -72.978700 5.348090 -0.000007 -0.000001 -64.020500 45.255500 -14.518500 24.328600 0.000019 0.000005 3.893570 7.443680 -27.714100 22.291600 -0.000001 0.000005 8.809640 5.586040 -10.541700 12.994500 -0.242716 -4.980390 88.158300 5.069920 -70.005300 -5.348130 -0.000001 -0.000004 -65.438600 35.473100 -14.794800 -24.328900 0.000322 -0.000009 2.895510 7.461580 -21.287500 -22.291500 -0.000108 -0.000004 12.351200 5.528160 -7.714870 -2.192480 -6.469440 -0.000000 -168.613000 -14.511100 -2.385660 39.081100 -0.000007 -0.000012 -0.190384 0.481386 21.578600 40.985400 -0.000006 -0.000013 -6.098530 3.874670 -64.119500 11.754300 -0.000000 0.000003 -0.000032 -0.000378 -16.592300 -2.192510 6.469440 -0.000001 175.123000 20.203000 179.447000 -39.081100 -0.002282 -0.040193 -0.039540 0.118987 19.810100 -40.985400 0.000008 0.000006 -2.604990 2.221890 -64.090400 -11.754300 -0.000006 -0.000006 -0.006318 -0.073695 -19.572600
0.000000 0.000000 0.000000 0.000000 0.000000 -0.000000 -1.511300 92.027100 -1.450710 87.568900 -0.395274 3.329550 15.735700 0.000005 -0.000001 84.225000 85.528200 -83.455100 8.984550 -0.406207 -0.000000 1.139140 -0.944045 1.548040 16.377300 -0.000001 -0.000001 0.167191 -3.714650 1.441820 6.456720 -0.000001 -0.000000 0.582908 -2.073610 -4.765400 12.994200 -0.242716 4.980390 -90.090100 0.294086 -72.965400 5.348090 -0.000007 -0.000001 -61.919500 47.340500 -15.156000 24.328600 0.000019 0.000005 4.381920 7.550510 -30.249500 22.291600 -0.000001 0.000005 8.798130 5.597120 -11.170200 12.994500 -0.242716 -4.980390 88.174000 4.953250 -69.734100 -5.348130 -0.000001 -0.000004 -64.907500 33.215100 -15.149100 -24.328900 0.000322 -0.000009 2.924710 7.383710 -21.687100 -22.291500 -0.000108 -0.000004 13.087400 5.522760 -7.481290 -2.192480 -6.469440 -0.000000 -168.635000 -14.452900 -2.414210 39.081100 -0.000007 -0.000012 -0.187586 0.476606 21.484200 40.985400 -0.000006 -0.000013 -6.079380 3.935520 -64.000000 11.754300 -0.000000 0.000003 -0.000031 -0.000377 -16.592300 -2.192510 6.469440 -0.000001 175.174000 20.188000 179.409000 -39.081100 -0.002282 -0.040193 -0.033360 0.101923 19.793800 -40.985400 0.000008 0.000006 -2.410880 2.049190 -64.050400 -11.754300 -0.000006 -0.000006 -0.006107 -0.071805 -19.495500
0.000000 0.000000 0.000000 0.000000 0.000000 -0.000000 -1.497120 92.029200 -1.518130 87.589400 -0.350136 3.321820 15.735700 0.000005 -0.000001 83.735600 85.457000 -82.983400 8.984550 -0.406207 -0.000000 1.273140 -1.033580 1.514730 16.377300 -0.000001 -0.000001 0.090591 -3.679670 1.436640 6.456720 -0.000001 -0.000000 0.175896 -1.913080 -4.974020 12.994200 -0.242716 4.980390 -90.068700 0.223318 -72.899200 5.348090 -0.000007 -0.000001 -59.043800 49.941100 -15.992600 24.328600 0.000019 0.000005 4.547850 6.853410 -33.687900 22.291600 -0.000001 0.000005 9.166480 5.612170 -12.095400 12.994500 -0.242716 -4.980390 88.209800 4.787050 -69.467300 -5.348130 -0.000001 -0.000004 -63.883800 30.156300 -15.966100 -24.328900 0.000322 -0.000009 2.831930 7.125900 -21.747700 -22.291500 -0.000108 -0.000004 13.350400 5.517910 -7.273200 -2.192480 -6.469440 -0.000000 -168.668000 -14.571700 -2.503120 39.081100 -0.000007 -0.000012 -0.186592 0.473183 21.521200 40.985400 -0.000006 -0.000013 -6.026750 4.080130 -63.949700 11.754300 -0.000000 0.000003 -0.000031 -0.000373 -16.592100 -2.192510 6.469440 -0.000001 175.167000 20.182800 179.330000 -39.081100 -0.002282 -0.040193 -0.033506 0.102057 19.842200 -40.985400 0.000008 0.000006 -2.389560 2.005420 -64.032600 -11.754300 -0.000006 -0.000006 -0.006134 -0.072046 -19.505400
0.000000 0.000000 0.000000 0.000000 0.000000 -0.000000 -1.462920 92.044000 -1.576940 87.601800 -0.330479 3.349450 15.735700 0.000005 -0.000001 83.171000 85.390900 -82.446700 8.984550 -0.406207 -0.000000 1.394610 -1.135830 1.461300 16.377300 -0.000001 -0.000001 0.036170 -3.596030 1.439040 6.456720 -0.000001 -0.000000 -0.171012 -1.745870 -5.192770 12.994200 -0.242716 4.980390 -90.008400 0.026908 -72.741200 5.348090 -0.000007 -0.000001 -55.918400 52.338000 -16.664000 24.328600 0.000019 0.000005 5.007880 6.398860 -38.174500 22.291600 -0.000001 0.000005 9.499400 5.630710 -13.386700 12.994500 -0.242716 -4.980390 88.244500 4.620040 -69.168000 -5.348130 -0.000001 -0.000004 -62.167100 26.752600 -17.251800 -24.328900 0.000322 -0.000009 2.694140 6.837970 -21.572600 -22.291500 -0.000108 -0.000004 13.413200 5.506230 -6.786260 -2.192480 -6.469440 -0.000000 -168.700000 -14.570300 -2.481100 39.081100 -0.000007 -0.000012 -0.187175 0.476361 21.451400 40.985400 -0.000006 -0.000013 -5.997080 4.104030 -63.883600 11.754300 -0.000000 0.000003 -0.000029 -0.000348 -16.591100 -2.192510 6.469440 -0.000001 175.156000 20.165100 179.335000 -39.081100 -0.002282 -0.040193 -0.029764 0.091907 19.798700 -40.985400 0.000008 0.000006 -2.280460 1.948090 -63.974800 -11.754300 -0.000006 -0.000006 -0.005961 -0.070484 -19.441600
